# xmcd CD database file
#
# Track frame offsets:
#	150
#	15482
#	29540
#	48563
#	67376
#	85823
#	101447
#	115615
#	130821
#	148768
#	174372
#	188693
#	206122
#	224641
#	238435
#	251548
#
# Disc length: 3538 seconds
#
# Revision: 0
# Processed by: cddbd v1.4PL0 Copyright (c) Steve Scherf et al.
# Submitted via: CdAid (MTCDDB.DLL V2003.12.21)
#
DISCID=f00dd010
DTITLE=Various Artist - Country Fever Vol. 5
DYEAR=2001
DGENRE=Country
TTITLE0=I Just Wanted You To Know
TTITLE1=Love Without End, Amen
TTITLE2=Home Ain't Where His Heart Is
TTITLE3=Don't Take The Girl
TTITLE4=Rope The Moon
TTITLE5=Don't Take Her She's All I Got
TTITLE6=Better Things To Do
TTITLE7=They're Playin' Our Song
TTITLE8=Maybe It Was Memphis
TTITLE9=Worlds Apart
TTITLE10=Is There Life Out There
TTITLE11=Living In A Moment
TTITLE12=How You Love Makes Me Feel
TTITLE13=Statue of a Fool
TTITLE14=She Don't Know She's Beautiful
TTITLE15=Alibis
EXTD=ID3G:   2 YEAR: 2001
EXTT0=Mark Chestnut
EXTT1=George Strait
EXTT2=Shania Twain
EXTT3=Tim McGraw
EXTT4=John Michael Montgomery
EXTT5=Tracy Byrd
EXTT6=Terri Clark
EXTT7=Neal McCoy
EXTT8=Pam Tillis
EXTT9=Vince Gill
EXTT10=Reba McEntire
EXTT11=Ty Herndon
EXTT12=Diamond Rio
EXTT13=Ricky Van Shelton
EXTT14=Sammy Kershaw
EXTT15=Tracy Lawrence
PLAYORDER=
